<?xml version="1.0" encoding="UTF-8"?>
<svg id="Layer_1" data-name="Layer 1" xmlns="http://www.w3.org/2000/svg" viewBox="0 0 256 256">
  <defs>
    <style>
      .cls-1 {
        fill: #f8c12c;
      }

      .cls-2 {
        fill: #cd7179;
      }

      .cls-2, .cls-3 {
        stroke: #000;
        stroke-linecap: round;
        stroke-linejoin: round;
        stroke-width: 8px;
      }

      .cls-3 {
        fill: none;
      }
    </style>
  </defs>
  <g>
    <path class="cls-2" d="m91.45,41.91S99.6,9.03,126.96,4.56c0,0-4.17,17.72,8.17,21.22,0,0-24.04,1.68-43.68,16.13Z"/>
    <path class="cls-2" d="m157.55,84.72s4.66,10.05,16.49,8.74c0,0-11.1,19.73-37.51,11.97,0,0,13.46-13.2,21.02-20.71Z"/>
    <path class="cls-2" d="m57.25,127.53s-16.05-42.48,34.19-85.62c0,0,42.35-31.83,91.01-7.37,0,0,63.79,32.22,46.43,100.87,0,0-4.6-29.85-39.59-27.75,0,0,19.99-16.83,6.58-31.83,0,0-15.78-14.73-36.3,6.31,0,0-43.4,59.18-102.32,45.37Z"/>
    <path class="cls-3" d="m107.76,57.95s31.32,15.91,5.53,62.4"/>
    <circle cx="86.94" cy="89.55" r="13.12"/>
    <circle class="cls-1" cx="86.94" cy="89.55" r="6.41"/>
  </g>
  <g>
    <path class="cls-2" d="m164.55,214.09s-8.15,32.88-35.51,37.35c0,0,4.17-17.72-8.17-21.22,0,0,24.04-1.68,43.68-16.13Z"/>
    <path class="cls-2" d="m98.45,171.28s-4.66-10.05-16.49-8.74c0,0,11.1-19.73,37.51-11.97,0,0-13.46,13.2-21.02,20.71Z"/>
    <path class="cls-2" d="m198.75,128.47s16.05,42.48-34.19,85.62c0,0-42.35,31.83-91.01,7.37,0,0-63.79-32.22-46.43-100.87,0,0,4.6,29.85,39.59,27.75,0,0-19.99,16.83-6.58,31.83,0,0,15.78,14.73,36.3-6.31,0,0,43.4-59.18,102.32-45.37Z"/>
    <path class="cls-3" d="m148.24,198.05s-31.32-15.91-5.53-62.4"/>
    <circle cx="169.06" cy="166.45" r="13.12"/>
    <circle class="cls-1" cx="169.06" cy="166.45" r="6.41"/>
  </g>
</svg>