<?xml version="1.0" encoding="UTF-8"?>
<svg id="Layer_1" data-name="Layer 1" xmlns="http://www.w3.org/2000/svg" viewBox="0 0 256 256">
  <defs>
    <style>
      .cls-1 {
        fill: #f8c12c;
      }

      .cls-2 {
        fill: #cd7179;
      }
    </style>
  </defs>
  <path d="m114.69,242.25c-18.95,0-34.37-15.42-34.37-34.37s15.42-34.38,34.37-34.38,34.38,15.42,34.38,34.38-15.42,34.37-34.38,34.37Z"/>
  <path d="m181.7,242.25c-18.95,0-34.38-15.42-34.38-34.37s15.42-34.38,34.38-34.38,34.37,15.42,34.37,34.38-15.42,34.37-34.37,34.37Z"/>
  <path d="m96.3,202.31c-12.01,0-22.94-6.1-29.25-16.31-6.31-10.21-6.87-22.71-1.5-33.45v-.02s-27.6-96.66-27.6-96.66h-16.89C9.45,55.88,0,46.43,0,34.81S9.45,13.75,21.06,13.75h32.78c9.35,0,17.67,6.28,20.25,15.27l3.25,11.36h157.61c6.55,0,12.83,3.12,16.8,8.35,3.98,5.29,5.25,12.18,3.46,18.49l-26.63,93.2c-.8,2.81-2.17,5.35-3.95,7.52,2.97,3.63,4.76,8.27,4.76,13.32,0,11.61-9.45,21.06-21.06,21.06h-112.03Z"/>
  <circle class="cls-2" cx="114.69" cy="207.87" r="19.97"/>
  <circle class="cls-2" cx="181.7" cy="207.87" r="19.97"/>
  <path class="cls-1" d="m21.06,41.47h27.76l32.13,112.49-2.52,5.04c-6.64,13.26,3,28.9,17.86,28.9h112.03c3.68,0,6.66-2.98,6.66-6.66s-2.98-6.66-6.66-6.66h-112.03c-4.94,0-8.17-5.2-5.95-9.63l1.84-3.68h116.14c2.97,0,5.58-1.97,6.4-4.83l26.62-93.19c.57-2.01.17-4.17-1.09-5.84-1.26-1.66-3.23-2.65-5.32-2.65H66.47l-6.23-21.8c-.82-2.86-3.43-4.83-6.4-4.83H21.06c-3.68,0-6.66,2.98-6.66,6.66s2.98,6.66,6.66,6.66h0Z"/>
</svg>