<?xml version="1.0" encoding="UTF-8"?>
<svg id="Layer_1" data-name="Layer 1" xmlns="http://www.w3.org/2000/svg" viewBox="0 0 256 256" width="128" height="128">
  <defs>
    <style>
      .cls-1 {
        fill: #f8c12c;
      }

      .cls-2 {
        fill: #cd7179;
      }
    </style>
  </defs>
  <g>
    <path d="m44.08,184.06c-13.31,0-25.19-7.95-30.27-20.25-4.91-11.88-2.46-25.37,6.21-34.75-2.77-10.59-.01-22.06,7.34-30.22,6.2-6.88,15.07-10.83,24.32-10.83,1.49,0,2.98.1,4.46.31,3.81-8.56,11.02-15.02,20.02-17.87,3.19-1.01,6.51-1.52,9.85-1.52,5.86,0,11.54,1.55,16.56,4.5,6.18-7.63,15.53-12.12,25.42-12.12s19.24,4.49,25.42,12.12c4.17-2.45,8.87-3.95,13.71-4.36.9-.07,1.81-.11,2.71-.11,12.89,0,24.71,7.71,30,19.37,1.49-.21,3-.31,4.5-.31,9.25,0,18.12,3.94,24.32,10.82,7.36,8.17,10.12,19.64,7.34,30.23,8.67,9.38,11.12,22.87,6.21,34.75-5.08,12.29-16.97,20.24-30.27,20.25H44.08Z"/>
    <path class="cls-1" d="m233.47,129.7c3.15-10.25.68-21.39-6.5-29.36-7.18-7.96-18.01-11.57-28.53-9.5-4.9-12.69-17.57-20.64-31.13-19.53-5.17.44-10.15,2.2-14.44,5.13-5.71-8.08-14.99-12.88-24.88-12.88s-19.17,4.8-24.88,12.88c-7.71-5.23-17.39-6.64-26.27-3.84-8.88,2.81-16,9.52-19.3,18.23-10.52-2.06-21.34,1.56-28.51,9.52-7.17,7.96-9.64,19.1-6.5,29.35-8.74,8.72-11.37,21.85-6.65,33.26,4.72,11.41,15.85,18.85,28.2,18.86h167.84c12.35,0,23.48-7.45,28.19-18.86,4.72-11.41,2.1-24.54-6.65-33.26Z"/>
    <path d="m15.88,162.98c4.73,11.4,15.85,18.84,28.2,18.83h167.84c12.35,0,23.48-7.45,28.19-18.86,4.57-11.05,2.25-23.71-5.84-32.42-.49-.53-.67-1.26-.49-1.96.68-2.54,1.02-5.16,1.02-7.8-.02-16.85-13.67-30.5-30.52-30.52-1.45,0-2.9.11-4.34.31-.91.13-1.76-.4-2.13-1.24-5.29-11.81-17.49-19.1-30.51-18.03-4.58.39-9,1.81-12.93,4.16-.85.51-1.96.31-2.58-.46-5.76-7.21-14.51-11.45-23.81-11.45s-18.05,4.24-23.81,11.46c-.62.77-1.73.97-2.58.46-7.44-4.43-16.45-5.5-24.76-2.88-8.37,2.65-15.17,8.76-18.7,16.75-.37.84-1.27,1.34-2.18,1.21-9.96-1.44-20.04,2.14-26.86,9.64-7.18,7.89-9.71,18.96-6.66,29.19-.05.05-.1.09-.15.14l.19.19c-8.73,8.73-11.34,21.86-6.61,33.26Zm13.53-29.23c.15-.13.29-.28.41-.43.15-.18.31-.36.5-.49,6.37-4.29,14.76-3.97,20.79.72.43.34.68.86.74,1.4.52,5.02,2.53,9.75,5.76,13.6.77.92,2.17.98,3.02.13l2.52-2.52c.74-.74.79-1.92.13-2.73-5.29-6.51-5.29-15.89,0-22.39.66-.81.61-1.99-.12-2.73l-2.51-2.52c-.85-.85-2.25-.8-3.02.12-1.82,2.17-3.27,4.63-4.27,7.28-.42,1.1-1.66,1.62-2.73,1.14-6-2.68-12.81-2.93-18.99-.71-1.32.47-2.7-.45-2.76-1.85-.33-6.96,2.55-13.75,7.91-18.36,6.09-5.25,14.5-6.9,22.12-4.35,1.01.34,2.12.23,3.05-.29s1.61-1.4,1.86-2.44c1.89-7.89,7.82-14.19,15.59-16.54,7.77-2.35,16.2-.4,22.14,5.12.88.81,2.09,1.17,3.27.95,1.18-.21,2.19-.97,2.73-2.04,3.62-7.28,10.85-12.08,18.97-12.6,7.56-.49,14.82,2.81,19.44,8.72.57.73.62,1.76.05,2.49-.97,1.26-1.82,2.61-2.54,4.03-.54,1.06-1.84,1.44-2.87.85-3.18-1.84-6.72-2.96-10.38-3.28-1.2-.11-2.23.84-2.23,2.05v3.55c0,1.05.8,1.92,1.85,2.03,4.03.41,7.83,2.21,10.71,5.11l.27-.27c-.37,6.46,1.74,12.79,5.87,17.71.77.92,2.16.96,3.01.12l2.52-2.52c.74-.74.79-1.92.13-2.73-5.62-6.93-5.26-17.12,1.13-23.63.35-.13.67-.31.96-.54,3.71-3.46,8.47-5.58,13.53-6.01,9.52-.74,18.43,4.47,22.52,12.95.48.99.08,2.21-.9,2.71-6.27,3.25-13.9,2.48-19.39-1.97-.81-.66-1.98-.6-2.72.14l-2.52,2.52c-.85.85-.79,2.25.13,3.03,8.95,7.5,22.01,7.96,31.5.84.16,0,.32-.02.48-.05,8.36-2.85,17.61-.61,23.74,5.75,5.85,6.07,7.85,14.85,5.27,22.82-.23.7-.84,1.18-1.56,1.33-10.99,2.28-19.14,11.5-20.14,22.6-.11,1.2.84,2.24,2.05,2.24h3.56c1.05,0,1.91-.8,2.02-1.84.88-8.33,7.53-14.98,15.94-15.78.65-.06,1.3.22,1.72.72,3.31,4.06,5.13,9.14,5.14,14.4-.01,12.63-10.25,22.87-22.89,22.89h-23.47c-.88,0-1.68-.55-1.95-1.38-3.11-9.76-11.79-16.69-21.95-17.59-1.19-.11-2.22.85-2.22,2.05v3.56c0,1.05.79,1.91,1.83,2.02,5.46.58,10.31,3.65,13.19,8.26.84,1.34-.18,3.09-1.76,3.09h-61.27c-1.4,0-2.43-1.4-1.93-2.71,1.18-3.15,3.03-6.02,5.42-8.41h0c.8-.8.8-2.09,0-2.89l-2.5-2.5c-.8-.8-2.09-.8-2.89,0h0c-4.06,4.04-6.91,9.1-8.28,14.64-.25,1.03-1.28,1.68-2.32,1.5-9.26-1.6-16.1-9.83-15.75-19.42.36-10.25,8.79-18.37,19.05-18.35h31.91c1.26,0,2.25,1.14,2.02,2.38-.85,4.74-3.13,9.12-6.56,12.55h0c-.8.8-.8,2.09,0,2.89l2.5,2.5c.8.8,2.09.8,2.89,0h0c5.01-5,8.16-11.55,8.95-18.55.12-1.02,1-1.77,2.02-1.77h28.67c.95,0,1.79.66,1.99,1.59.86,4.02,2.69,7.78,5.33,10.92.77.91,2.16.96,3.01.12l2.52-2.52c.74-.74.79-1.92.13-2.73-5.28-6.51-5.28-15.88,0-22.39.66-.81.61-1.99-.13-2.73l-2.52-2.52c-.84-.84-2.24-.8-3.01.12-2.64,3.15-4.47,6.9-5.33,10.92-.2.93-1.03,1.59-1.99,1.59h-55.78c-.94,0-1.78-.64-1.98-1.55-1.87-8.57-8.03-15.56-16.25-18.51-1.17-.42-1.7-1.75-1.13-2.86,1.45-2.86,2.35-5.98,2.63-9.18.11-1.19-.85-2.22-2.05-2.22h-3.56c-1.05,0-1.92.8-2.02,1.84-.87,8.34-7.49,14.96-15.83,15.83-1.04.11-1.84.98-1.84,2.02v3.56c0,1.19,1.02,2.15,2.21,2.05,4.72-.42,9.25-2.16,13.05-5.05v.13c7.33.01,13.79,4.51,16.46,11.13.54,1.35-.45,2.83-1.9,2.83h-4.42c-10.86-.01-20.64,6.56-24.73,16.61-3.55,8.71-2.22,18.53,3.26,25.93.99,1.34,0,3.23-1.66,3.23h-17.32c-.98,0-1.84-.69-2-1.66-1.1-6.34-4.14-12.2-8.71-16.76h0c-.8-.8-2.09-.8-2.89,0l-2.5,2.5c-.8.8-.8,2.09,0,2.89h0c2.92,2.91,5.01,6.52,6.09,10.47.35,1.29-.65,2.56-1.99,2.56h-8.58c-9.62-.01-18.21-6.04-21.49-15.09-3.28-9.04-.56-19.17,6.82-25.35Z"/>
    <g>
      <path d="m222.91,208.38h-10.49c-3.27-20.25-22.34-34.02-42.59-30.75-13.61,2.2-24.89,11.76-29.28,24.83h-24.7c-6.54-19.44-27.6-29.9-47.04-23.36-13.07,4.4-22.63,15.67-24.83,29.28h-10.88c-2.4,0-4.34,1.94-4.34,4.34s1.94,4.34,4.34,4.34h10.51c1.53,20.46,19.35,35.8,39.8,34.27,19.39-1.45,34.38-17.6,34.38-37.04,0-1.06-.05-2.12-.14-3.16h21.1c-.09,1.04-.14,2.09-.14,3.16,0,20.51,16.62,37.14,37.14,37.14,19.44,0,35.6-14.99,37.04-34.38h10.12c2.4,0,4.34-1.94,4.34-4.34s-1.94-4.34-4.34-4.34h0Z"/>
      <path class="cls-1" d="m80.65,242.76c-15.72,0-28.46-12.74-28.46-28.46,0-15.72,12.74-28.46,28.46-28.46,15.72,0,28.46,12.74,28.46,28.46h0c-.02,15.71-12.75,28.44-28.46,28.46Z"/>
      <path class="cls-1" d="m175.75,242.76c-15.72,0-28.46-12.74-28.46-28.46,0-15.72,12.74-28.46,28.46-28.46,15.72,0,28.46,12.74,28.46,28.46-.02,15.71-12.75,28.44-28.46,28.46Z"/>
    </g>
  </g>
  <g>
    <path class="cls-1" d="m84.89,62.37c0,1.35-1.09,2.43-2.43,2.43h-9.75c-1.35,0-2.43-1.09-2.43-2.43s1.09-2.45,2.43-2.45h9.75c1.35,0,2.43,1.11,2.43,2.45Z"/>
    <path class="cls-1" d="m87.16,24.95c-.95-.95-.95-2.49,0-3.44.97-.97,2.49-.97,3.46,0l6.9,6.88c.95.97.95,2.51,0,3.46-.48.48-1.11.7-1.73.7s-1.25-.22-1.73-.7l-6.9-6.9Z"/>
    <path class="cls-1" d="m97.56,92.88c.95.95.95,2.49,0,3.44l-6.9,6.9c-.48.48-1.11.7-1.73.7s-1.25-.22-1.71-.7c-.97-.95-.97-2.49,0-3.46l6.88-6.88c.97-.97,2.51-.97,3.46,0Z"/>
    <path class="cls-1" d="m125.57,16.74V6.99c0-1.35,1.11-2.43,2.45-2.43s2.43,1.09,2.43,2.43v9.75c0,1.35-1.09,2.43-2.43,2.43s-2.45-1.09-2.45-2.43Z"/>
    <path d="m128.03,131.59c-5.91,0-11.16-3.81-13.11-9.27h-4.01c-5.25,0-9.53-4.26-9.53-9.51,0-1.73.47-3.41,1.35-4.88-.88-1.46-1.35-3.13-1.35-4.87,0-2.11.71-4.14,1.98-5.79l-9.88-21.17c-5.55-11.86-4.66-25.54,2.37-36.59,7.04-11.05,19.07-17.65,32.17-17.65s25.1,6.6,32.15,17.65c7.03,11.05,7.92,24.73,2.37,36.59l-9.87,21.17c1.27,1.65,1.98,3.68,1.98,5.79,0,1.74-.47,3.42-1.35,4.87.88,1.47,1.35,3.15,1.35,4.88,0,5.24-4.27,9.51-9.53,9.51h-4.01c-1.94,5.47-7.19,9.27-13.09,9.27Z"/>
    <path class="cls-2" d="m152.44,103.06c0,1.87-.7,3.58-1.89,4.87,1.17,1.29,1.89,3,1.89,4.89,0,4.02-3.28,7.3-7.32,7.3h-5.67c-1.13,5.29-5.81,9.27-11.42,9.27s-10.32-3.98-11.44-9.27h-5.67c-4.04,0-7.32-3.28-7.32-7.3,0-1.89.72-3.6,1.89-4.89-1.19-1.29-1.89-3-1.89-4.87,0-2.13.93-4.06,2.39-5.39l-10.5-22.5c-5.23-11.18-4.38-24.07,2.23-34.47,6.64-10.42,17.96-16.63,30.31-16.63s23.65,6.21,30.29,16.63c6.62,10.4,7.46,23.29,2.23,34.47l-10.5,22.5c1.47,1.33,2.39,3.26,2.39,5.39Z"/>
    <path class="cls-1" d="m168.83,99.76c.95.97.95,2.51,0,3.46-.48.48-1.11.7-1.73.7s-1.25-.22-1.73-.7l-6.9-6.9c-.95-.95-.95-2.49,0-3.44.97-.97,2.49-.97,3.46,0l6.9,6.88Z"/>
    <path class="cls-1" d="m168.87,21.51c.95.95.95,2.49,0,3.44l-6.9,6.9c-.48.48-1.11.7-1.73.7s-1.25-.22-1.73-.7c-.95-.95-.95-2.49,0-3.46l6.9-6.88c.97-.97,2.49-.97,3.46,0Z"/>
    <path class="cls-1" d="m185.76,62.37c0,1.35-1.09,2.43-2.43,2.43h-9.75c-1.35,0-2.43-1.09-2.43-2.43s1.09-2.45,2.43-2.45h9.75c1.35,0,2.43,1.11,2.43,2.45Z"/>
    <g id="g1282">
      <g id="g1288">
        <g id="path1290">
          <path d="m158.31,40.69c-6.64-10.42-17.96-16.63-30.29-16.63s-23.67,6.21-30.31,16.63c-6.62,10.4-7.46,23.29-2.23,34.47l10.5,22.5.72,1.55c.4.84,1.27,1.39,2.21,1.39h38.19c.95,0,1.81-.54,2.21-1.39l.72-1.55,10.5-22.5c5.23-11.18,4.38-24.07-2.23-34.47Zm-2.17,32.42l-10.58,22.62h-35.09l-10.58-22.62c-4.5-9.67-3.78-20.81,1.95-29.8,5.73-9.01,15.51-14.38,26.18-14.38s20.45,5.37,26.16,14.38c5.73,8.99,6.46,20.13,1.95,29.8Z"/>
        </g>
      </g>
      <g id="g1292">
        <g id="path1294">
          <path d="m152.44,103.06c0,1.87-.7,3.58-1.89,4.87-1.33,1.49-3.26,2.43-5.43,2.43h-6.13c-1.35,0-2.43-1.09-2.43-2.43s1.09-2.43,2.43-2.43h6.13c1.35,0,2.43-1.09,2.43-2.43s-1.09-2.45-2.43-2.45h-34.21c-1.35,0-2.43,1.11-2.43,2.45s1.09,2.43,2.43,2.43h6.13c1.35,0,2.43,1.09,2.43,2.43s-1.09,2.43-2.43,2.43h-6.13c-2.17,0-4.1-.95-5.43-2.43-1.19-1.29-1.89-3-1.89-4.87,0-2.13.93-4.06,2.39-5.39,1.29-1.21,3.04-1.93,4.93-1.93h34.21c1.91,0,3.64.72,4.93,1.93,1.47,1.33,2.39,3.26,2.39,5.39Z"/>
        </g>
      </g>
      <g id="g1296">
        <g id="path1298">
          <path d="m152.44,112.81c0,4.02-3.28,7.3-7.32,7.3h-34.21c-4.04,0-7.32-3.28-7.32-7.3,0-1.89.72-3.6,1.89-4.89,1.33-1.51,3.28-2.43,5.43-2.43,1.35,0,2.43,1.09,2.43,2.43s-1.09,2.43-2.43,2.43-2.43,1.11-2.43,2.45,1.09,2.43,2.43,2.43h34.21c1.35,0,2.43-1.11,2.43-2.43s-1.09-2.45-2.43-2.45-2.43-1.09-2.43-2.43,1.09-2.43,2.43-2.43c2.15,0,4.1.93,5.43,2.43,1.17,1.29,1.89,3,1.89,4.89Z"/>
        </g>
      </g>
      <g id="g1300">
        <g id="path1302">
          <path d="m139.71,117.68c0,.84-.08,1.65-.26,2.43-1.13,5.29-5.81,9.27-11.42,9.27s-10.32-3.98-11.44-9.27c-.18-.78-.26-1.59-.26-2.43,0-1.35,1.09-2.43,2.43-2.43s2.43,1.09,2.43,2.43c0,.84.16,1.67.46,2.43.97,2.57,3.46,4.4,6.37,4.4s5.39-1.83,6.35-4.4c.3-.76.46-1.59.46-2.43,0-1.35,1.09-2.43,2.43-2.43s2.43,1.09,2.43,2.43Z"/>
        </g>
      </g>
      <g id="g1304">
        <g id="path1306">
          <path d="m128.03,21.18c-2.46,0-4.45-1.99-4.45-4.43V6.99c0-2.44,2-4.43,4.45-4.43s4.43,1.99,4.43,4.43v9.75c0,2.44-1.99,4.43-4.43,4.43Z"/>
          <path d="m130.46,6.99v9.75c0,1.35-1.09,2.43-2.43,2.43s-2.45-1.09-2.45-2.43V6.99c0-1.35,1.11-2.43,2.45-2.43s2.43,1.09,2.43,2.43Z"/>
        </g>
      </g>
      <g id="g1308">
        <g id="path1310">
          <path d="m95.79,34.55c-1.2,0-2.31-.46-3.14-1.29l-6.9-6.9c-.83-.83-1.29-1.95-1.29-3.13s.46-2.3,1.29-3.13c.84-.84,1.96-1.31,3.14-1.31s2.3.46,3.14,1.31l6.9,6.88c1.72,1.76,1.72,4.57,0,6.29-.83.83-1.95,1.29-3.14,1.29Z"/>
          <path d="m97.52,31.85c-.48.48-1.11.7-1.73.7s-1.25-.22-1.73-.7l-6.9-6.9c-.95-.95-.95-2.49,0-3.44.97-.97,2.49-.97,3.46,0l6.9,6.88c.95.97.95,2.51,0,3.46Z"/>
        </g>
      </g>
      <g id="g1312">
        <g id="path1314">
          <path d="m72.7,66.81c-2.44,0-4.43-1.99-4.43-4.43s1.99-4.45,4.43-4.45h9.75c2.44,0,4.43,2,4.43,4.45s-1.99,4.43-4.43,4.43h-9.75Z"/>
          <path d="m84.89,62.37c0,1.35-1.09,2.43-2.43,2.43h-9.75c-1.35,0-2.43-1.09-2.43-2.43s1.09-2.45,2.43-2.45h9.75c1.35,0,2.43,1.11,2.43,2.45Z"/>
        </g>
      </g>
      <g id="g1320">
        <g id="path1322">
          <path d="m160.24,34.55c-1.2,0-2.31-.46-3.14-1.29-1.72-1.72-1.72-4.53-.01-6.27l6.92-6.89c.84-.84,1.96-1.31,3.14-1.31s2.3.47,3.14,1.31c.83.83,1.29,1.95,1.29,3.13s-.46,2.3-1.29,3.13l-6.9,6.9c-.83.83-1.95,1.29-3.14,1.29Z"/>
          <path d="m168.87,24.95l-6.9,6.9c-.48.48-1.11.7-1.73.7s-1.25-.22-1.73-.7c-.95-.95-.95-2.49,0-3.46l6.9-6.88c.97-.97,2.49-.97,3.46,0,.95.95.95,2.49,0,3.44Z"/>
        </g>
      </g>
      <g id="g1324">
        <g id="path1326">
          <path d="m173.58,66.81c-2.44,0-4.43-1.99-4.43-4.43s1.99-4.45,4.43-4.45h9.75c2.44,0,4.43,2,4.43,4.45s-1.99,4.43-4.43,4.43h-9.75Z"/>
          <path d="m185.76,62.37c0,1.35-1.09,2.43-2.43,2.43h-9.75c-1.35,0-2.43-1.09-2.43-2.43s1.09-2.45,2.43-2.45h9.75c1.35,0,2.43,1.11,2.43,2.45Z"/>
        </g>
      </g>
      <g id="g1332">
        <g id="path1334">
          <path d="m139.71,58.67c-4.57,0-8.29,3.72-8.29,8.29v5.85c0,1.35,1.11,2.45,2.45,2.45h5.83c4.59,0,8.31-3.72,8.31-8.31s-3.72-8.29-8.31-8.29Zm0,11.7h-3.4v-3.42c0-1.87,1.53-3.4,3.4-3.4s3.42,1.53,3.42,3.4-1.53,3.42-3.42,3.42Z"/>
        </g>
      </g>
      <g id="g1336">
        <g id="path1338">
          <path d="m116.32,58.67c-4.59,0-8.31,3.72-8.31,8.29s3.72,8.31,8.31,8.31h5.85c1.35,0,2.43-1.11,2.43-2.45v-5.85c0-4.57-3.72-8.29-8.29-8.29Zm0,11.7c-1.89,0-3.42-1.53-3.42-3.42s1.53-3.4,3.42-3.4,3.4,1.53,3.4,3.4v3.42h-3.4Z"/>
        </g>
      </g>
      <g id="g1340">
        <g id="path1342">
          <path d="m133.87,100.48c-1.35,0-2.44-1.09-2.44-2.44v-25.22c0-1.35,1.09-2.44,2.44-2.44s2.44,1.09,2.44,2.44v25.22c0,1.35-1.09,2.44-2.44,2.44Z"/>
        </g>
      </g>
      <g id="g1344">
        <g id="path1346">
          <path d="m122.17,100.61c-1.35,0-2.44-1.09-2.44-2.44v-25.35c0-1.35,1.09-2.44,2.44-2.44s2.44,1.09,2.44,2.44v25.35c0,1.35-1.09,2.44-2.44,2.44Z"/>
        </g>
      </g>
      <g id="g1348">
        <g id="path1350">
          <path d="m133.87,75.26h-11.7c-1.35,0-2.44-1.09-2.44-2.44s1.09-2.44,2.44-2.44h11.7c1.35,0,2.44,1.09,2.44,2.44s-1.09,2.44-2.44,2.44Z"/>
        </g>
      </g>
      <g id="g1352">
        <g id="path1354">
          <path d="m128.02,110.36c-.08,0-.16,0-.24-.01-.08,0-.16-.02-.24-.03-.16-.03-.31-.08-.46-.14-.15-.06-.29-.14-.42-.22-.07-.04-.13-.09-.19-.14-.06-.05-.12-.1-.18-.16-.05-.05-.11-.12-.16-.18-.05-.06-.1-.13-.14-.19-.09-.13-.16-.27-.22-.42-.06-.15-.11-.3-.14-.46-.01-.08-.03-.16-.03-.24,0-.08-.01-.16-.01-.24s0-.16.01-.24c0-.08.02-.16.03-.24.03-.16.08-.31.14-.46.06-.15.14-.29.22-.42.04-.07.09-.13.14-.19.05-.06.11-.12.16-.18.06-.06.12-.11.18-.16.06-.05.13-.1.19-.14.13-.09.27-.16.42-.22.15-.06.3-.11.46-.14.08-.01.16-.03.24-.03.16-.02.32-.02.48,0,.08,0,.16.02.24.03.16.03.31.08.46.14.15.06.29.14.42.22.07.04.13.09.19.14.06.05.12.1.18.16.06.05.11.12.16.18s.1.13.14.19c.09.13.16.27.22.42.06.15.11.3.14.46.02.08.03.16.04.24,0,.08.01.16.01.24s0,.16-.01.24c0,.08-.02.16-.04.24-.03.16-.08.31-.14.46-.06.15-.14.29-.22.42-.04.07-.09.13-.14.19-.05.06-.1.12-.16.18-.06.06-.12.11-.18.16-.06.05-.13.1-.19.14-.13.09-.27.16-.42.22-.15.06-.3.11-.46.14-.08.01-.16.03-.24.03-.08,0-.16.01-.24.01Z"/>
        </g>
      </g>
    </g>
  </g>
</svg>
