<?xml version="1.0" encoding="UTF-8"?>
<svg id="Layer_1" data-name="Layer 1" xmlns="http://www.w3.org/2000/svg" viewBox="0 0 256 256">
  <defs>
    <style>
      .cls-1 {
        fill: #f8c12c;
      }

      .cls-2 {
        fill: #cd7179;
      }
    </style>
  </defs>
  <path class="cls-1" d="m80.7,127.16l31.99,31.99c19.79-17.14,43.16-29.42,68.54-35.98L116.69,58.62c-6.57,25.38-18.84,48.75-35.98,68.54Z"/>
  <path class="cls-1" d="m91.47,200.64l36.58,36.58c2.88,2.88,7.57,2.88,10.45,0,2.88-2.88,2.88-7.57,0-10.45l-36.58-36.58-10.45,10.45Z"/>
  <path class="cls-1" d="m128.05,28.18c-2.89-2.89-7.56-2.89-10.45,0s-2.89,7.56,0,10.45l83.62,83.62c2.89,2.89,7.56,2.89,10.45,0,2.88-2.88,2.88-7.57,0-10.45L128.05,28.18Z"/>
  <path class="cls-1" d="m128.05,174.51l-4.88-4.88c-5.25,4.48-8.57,7.89-10.8,10.11l10.45,10.45,5.23-5.23c2.89-2.89,2.89-7.56,0-10.45Z"/>
  <path class="cls-2" d="m70.57,137.92l-36.58,36.58c-2.89,2.89-2.89,7.56,0,10.45l20.9,20.9c2.89,2.89,7.56,2.89,10.45,0,3.67-3.67,33-33,36.58-36.58l-31.36-31.36Zm5.23,36.58l-10.45,10.45c-2.89,2.89-7.57,2.89-10.45,0-2.89-2.89-2.89-7.57,0-10.45l10.45-10.45c2.89-2.89,7.57-2.89,10.45,0,2.89,2.89,2.89,7.57,0,10.45Z"/>
  <path d="m138.51,17.72c-8.64-8.64-22.71-8.65-31.36,0-7.77,7.77-8.44,19.62-2.7,28.09l-.12.58c-6.03,30.15-20.71,57.57-42.44,79.31l-38.35,38.35c-8.67,8.67-8.67,22.69,0,31.36l20.9,20.9c8.66,8.67,22.69,8.67,31.36,0l5.23-5.23,36.58,36.58c8.67,8.67,22.69,8.67,31.36,0,8.65-8.64,8.65-22.71,0-31.36l-15.68-15.68,5.23-5.23c8.67-8.66,8.67-22.69,0-31.36l-3.55-3.55c17.47-12.23,37.31-20.75,58.5-24.99l.59-.12c8.65,5.84,20.48,4.9,28.08-2.7h0c8.64-8.64,8.64-22.71,0-31.36L138.51,17.72Zm-73.16,188.14c-2.89,2.89-7.56,2.89-10.45,0l-20.9-20.9c-2.89-2.89-2.89-7.56,0-10.45l36.58-36.58,31.36,31.36c-3.58,3.58-32.92,32.91-36.58,36.58Zm73.16,20.9c2.88,2.88,2.88,7.57,0,10.45-2.88,2.88-7.57,2.88-10.45,0l-36.58-36.58,10.45-10.45,36.58,36.58Zm-26.13-47.03c2.22-2.22,5.55-5.62,10.8-10.11l4.88,4.88c2.89,2.89,2.89,7.56,0,10.45l-5.23,5.23-10.45-10.45Zm.31-20.59l-31.99-31.99c17.14-19.79,29.42-43.16,35.98-68.54l64.54,64.54c-25.38,6.57-48.75,18.84-68.54,35.98Zm98.98-36.9c-2.89,2.89-7.56,2.89-10.45,0L117.6,38.63c-2.89-2.89-2.89-7.56,0-10.45s7.56-2.89,10.45,0l83.62,83.62c2.88,2.88,2.88,7.57,0,10.45Z"/>
  <path d="m65.34,164.05l-10.45,10.45c-2.89,2.89-2.89,7.57,0,10.45,2.89,2.89,7.57,2.89,10.45,0l10.45-10.45c2.89-2.89,2.89-7.57,0-10.45-2.89-2.89-7.57-2.89-10.45,0Z"/>
  <path d="m172.45,31.39c4.08,0,7.39-3.31,7.39-7.39v-14.78c0-4.08-3.31-7.39-7.39-7.39s-7.39,3.31-7.39,7.39v14.78c0,4.08,3.31,7.39,7.39,7.39Z"/>
  <path d="m231.58,60.95h-14.78c-4.08,0-7.39,3.31-7.39,7.39s3.31,7.39,7.39,7.39h14.78c4.08,0,7.39-3.31,7.39-7.39s-3.31-7.39-7.39-7.39Z"/>
  <path d="m207.24,44.01l14.78-14.78c2.89-2.89,2.89-7.57,0-10.45-2.89-2.89-7.57-2.89-10.45,0l-14.78,14.78c-2.89,2.89-2.89,7.57,0,10.45,2.89,2.89,7.57,2.89,10.45,0Z"/>
</svg>